# xmcd
#
# Track frame offsets:
#	150
#	18080
#	37223
#	58654
#	73771
#	95103
#	108883
#	125090
#	138845
#	157536
#	170813
#
# Disc length: 2286 seconds
#
# Revision: 1
# Processed by: cddbd v1.5.1PL0 Copyright (c) Steve Scherf et al.
# Submitted via: audiograbber 1.83.01
#
DISCID=9508ec0b
DTITLE=Mike Milligan - If You Don't Change
DYEAR=2004
DGENRE=Blues
TTITLE0=Do Whatcha Gotta Do
TTITLE1=No Pressure
TTITLE2=Shiny and Black
TTITLE3=Life by the Drop
TTITLE4=Waited All Day
TTITLE5=If You Don't Change
TTITLE6=Big Wide Grin
TTITLE7=Closest Friends
TTITLE8=Rattling Chains
TTITLE9=Raspberry King
TTITLE10=Bonus
EXTD=
EXTT0=
EXTT1=
EXTT2=
EXTT3=
EXTT4=
EXTT5=
EXTT6=
EXTT7=
EXTT8=
EXTT9=
EXTT10=
PLAYORDER=
